HIERARCHY
ROOT joint_Root
{
	OFFSET 0.0 0.0 0.0
	CHANNELS 6 Xposition Yposition Zposition Zrotation Xrotation Yrotation 
	JOINT Hips
	{
		OFFSET 4.5925 91.4895 -427.239
		CHANNELS 6 Xposition Yposition Zposition Zrotation Xrotation Yrotation 
		JOINT Spine
		{
			OFFSET 15.7357 0.0 0.0
			CHANNELS 6 Xposition Yposition Zposition Zrotation Xrotation Yrotation 
			JOINT Chest
			{
				OFFSET 8.98455 -0.406207 0.0
				CHANNELS 6 Xposition Yposition Zposition Zrotation Xrotation Yrotation 
				JOINT Neck
				{
					OFFSET 16.3773 0.0 0.0
					CHANNELS 6 Xposition Yposition Zposition Zrotation Xrotation Yrotation 
					JOINT Head
					{
						OFFSET 6.45672 0.0 0.0
						CHANNELS 6 Xposition Yposition Zposition Zrotation Xrotation Yrotation 
						End Site
						{
							OFFSET 0.0 0.0 0.0
						}
					}
				}
				JOINT Shoulder_L
				{
					OFFSET 12.9942 -0.242716 4.98039
					CHANNELS 6 Xposition Yposition Zposition Zrotation Xrotation Yrotation 
					JOINT UpperArm_L
					{
						OFFSET 5.34809 0.0 0.0
						CHANNELS 6 Xposition Yposition Zposition Zrotation Xrotation Yrotation 
						JOINT LowerArm_L
						{
							OFFSET 24.3286 1.87007e-05 0.0
							CHANNELS 6 Xposition Yposition Zposition Zrotation Xrotation Yrotation 
							JOINT Hand_L
							{
								OFFSET 22.2916 0.0 0.0
								CHANNELS 6 Xposition Yposition Zposition Zrotation Xrotation Yrotation 
								End Site
								{
									OFFSET 0.0 0.0 0.0
								}
							}
						}
					}
				}
				JOINT Shoulder_R
				{
					OFFSET 12.9945 -0.242716 -4.98039
					CHANNELS 6 Xposition Yposition Zposition Zrotation Xrotation Yrotation 
					JOINT UpperArm_R
					{
						OFFSET -5.34813 0.0 0.0
						CHANNELS 6 Xposition Yposition Zposition Zrotation Xrotation Yrotation 
						JOINT LowerArm_R
						{
							OFFSET -24.3289 0.000322201 0.0
							CHANNELS 6 Xposition Yposition Zposition Zrotation Xrotation Yrotation 
							JOINT Hand_R
							{
								OFFSET -22.2915 -0.000108084 0.0
								CHANNELS 6 Xposition Yposition Zposition Zrotation Xrotation Yrotation 
								End Site
								{
									OFFSET 0.0 0.0 0.0
								}
							}
						}
					}
				}
			}
		}
		JOINT UpperLeg_L
		{
			OFFSET -2.19248 -6.46944 0.0
			CHANNELS 6 Xposition Yposition Zposition Zrotation Xrotation Yrotation 
			JOINT LowerLeg_L
			{
				OFFSET 39.0811 0.0 -1.23785e-05
				CHANNELS 6 Xposition Yposition Zposition Zrotation Xrotation Yrotation 
				JOINT Foot_L
				{
					OFFSET 40.9854 0.0 -1.26872e-05
					CHANNELS 6 Xposition Yposition Zposition Zrotation Xrotation Yrotation 
					JOINT Toes_L
					{
						OFFSET 11.7543 0.0 0.0
						CHANNELS 6 Xposition Yposition Zposition Zrotation Xrotation Yrotation 
						End Site
						{
							OFFSET 0.0 0.0 0.0
						}
					}
				}
			}
		}
		JOINT UpperLeg_R
		{
			OFFSET -2.19251 6.46944 0.0
			CHANNELS 6 Xposition Yposition Zposition Zrotation Xrotation Yrotation 
			JOINT LowerLeg_R
			{
				OFFSET -39.0811 -0.00228153 -0.0401928
				CHANNELS 6 Xposition Yposition Zposition Zrotation Xrotation Yrotation 
				JOINT Foot_R
				{
					OFFSET -40.9854 0.0 0.0
					CHANNELS 6 Xposition Yposition Zposition Zrotation Xrotation Yrotation 
					JOINT Toes_R
					{
						OFFSET -11.7543 0.0 0.0
						CHANNELS 6 Xposition Yposition Zposition Zrotation Xrotation Yrotation 
						End Site
						{
							OFFSET 0.0 0.0 0.0
						}
					}
				}
			}
		}
	}
}
MOTION
Frames:	6
Frame Time:	0.0333333
0.000000 0.000000 0.000000 0.000000 0.000000 -0.000000 -0.652173 91.170800 -37.608500 88.758700 -9.162720 -2.680680 15.735700 0.000005 -0.000001 118.335000 83.052500 -118.744000 8.984550 -0.406207 -0.000000 4.512170 6.595240 -1.078640 16.377300 -0.000001 -0.000001 0.371981 -3.316270 1.175890 6.456720 -0.000001 -0.000000 -6.206440 -6.823260 1.909090 12.994200 -0.242716 4.980390 -85.377600 -9.620560 -64.182700 5.348090 -0.000007 -0.000001 -65.295700 36.740300 28.920700 24.328600 0.000019 0.000005 10.780200 -0.523715 -92.747900 22.291600 -0.000001 0.000005 -2.032380 5.462510 -5.092650 12.994500 -0.242716 -4.980390 90.358400 -1.476360 -76.350700 -5.348130 -0.000001 -0.000004 -46.415000 38.235000 -55.429700 -24.328900 0.000322 -0.000009 -6.254710 4.293610 -124.338000 -22.291500 -0.000108 -0.000004 23.719000 5.569190 -9.647030 -2.192480 -6.469440 -0.000000 -177.747000 -7.217970 -28.336600 39.081100 -0.000007 -0.000012 0.006293 -0.014436 23.552800 40.985400 -0.000006 -0.000013 1.127610 3.227110 -61.024800 11.754300 -0.000000 0.000003 -0.006289 -0.073446 -19.566200 -2.192510 6.469440 -0.000001 173.894000 18.270900 -176.207000 -39.081100 -0.002282 -0.040193 0.016114 -0.025966 26.248300 -40.985400 0.000008 0.000006 8.729420 17.827600 -65.667800 -11.754300 -0.000006 -0.000006 -0.061213 -0.335698 -30.441000
0.000000 0.000000 0.000000 0.000000 0.000000 -0.000000 -0.392731 89.564000 -32.785400 88.207800 -11.638000 -1.950750 15.735700 0.000005 -0.000001 118.610000 82.204000 -119.147000 8.984550 -0.406207 -0.000000 5.996910 7.454740 -1.465640 16.377300 -0.000001 -0.000001 -0.651665 -2.542310 0.589246 6.456720 -0.000001 -0.000000 -7.652710 -6.754880 2.015600 12.994200 -0.242716 4.980390 -85.000300 -10.289900 -63.906500 5.348090 -0.000007 -0.000001 -64.890100 32.007500 28.752200 24.328600 0.000019 0.000005 14.126200 -1.000600 -93.969000 22.291600 -0.000001 0.000005 -1.685900 5.450810 -4.668670 12.994500 -0.242716 -4.980390 90.343000 -1.545640 -77.487600 -5.348130 -0.000001 -0.000004 -44.846100 37.306700 -56.562800 -24.328900 0.000322 -0.000009 -6.582950 4.467690 -124.020000 -22.291500 -0.000108 -0.000004 23.945100 5.566430 -9.507000 -2.192480 -6.469440 -0.000000 -174.114000 -4.749960 -29.359900 39.081100 -0.000007 -0.000012 -0.041189 0.115732 19.590400 40.985400 -0.000006 -0.000013 1.609540 2.989760 -63.467300 11.754300 -0.000000 0.000003 -0.005921 -0.070123 -19.430600 -2.192510 6.469440 -0.000001 172.814000 14.257500 -174.381000 -39.081100 -0.002282 -0.040193 0.020736 -0.030359 29.867700 -40.985400 0.000008 0.000006 8.936800 16.798200 -67.403100 -11.754300 -0.000006 -0.000006 -0.087656 -0.412836 -33.747300
0.000000 0.000000 0.000000 0.000000 0.000000 -0.000000 0.037389 87.867000 -27.538100 88.653500 -12.897200 -1.540000 15.735700 0.000005 -0.000001 115.461000 81.763800 -116.332000 8.984550 -0.406207 -0.000000 7.202470 7.060580 -2.187050 16.377300 -0.000001 -0.000001 -1.612510 -1.738510 0.210942 6.456720 -0.000001 -0.000000 -9.394470 -6.373930 1.813870 12.994200 -0.242716 4.980390 -85.981000 -8.337160 -64.147100 5.348090 -0.000007 -0.000001 -62.529900 26.693800 27.234400 24.328600 0.000019 0.000005 16.744000 -1.419780 -94.708000 22.291600 -0.000001 0.000005 -0.704100 5.437620 -4.202750 12.994500 -0.242716 -4.980390 89.949300 0.259995 -78.947700 -5.348130 -0.000001 -0.000004 -43.377100 37.850400 -54.923200 -24.328900 0.000322 -0.000009 -7.291150 4.576640 -121.950000 -22.291500 -0.000108 -0.000004 23.494300 5.566440 -9.507410 -2.192480 -6.469440 -0.000000 -175.135000 -8.772810 -33.369700 39.081100 -0.000007 -0.000012 -0.024357 0.054150 24.218400 40.985400 -0.000006 -0.000013 -3.192970 -0.890482 -61.236100 11.754300 -0.000000 0.000003 -0.005396 -0.065258 -19.232300 -2.192510 6.469440 -0.000001 170.625000 12.039500 -172.590000 -39.081100 -0.002282 -0.040193 0.038359 -0.053593 33.195400 -40.985400 0.000008 0.000006 9.448360 16.240300 -68.006600 -11.754300 -0.000006 -0.000006 -0.140924 -0.536494 -39.208000
0.000000 0.000000 0.000000 0.000000 0.000000 -0.000000 0.562560 86.390500 -21.547500 89.494600 -13.098600 -2.191940 15.735700 0.000005 -0.000001 112.898000 82.180500 -114.286000 8.984550 -0.406207 -0.000000 6.744970 6.077930 -3.133140 16.377300 -0.000001 -0.000001 -2.197410 -1.695860 0.844271 6.456720 -0.000001 -0.000000 -9.175630 -5.559840 1.549000 12.994200 -0.242716 4.980390 -88.118400 -4.120630 -65.434200 5.348090 -0.000007 -0.000001 -58.494000 21.316600 24.789000 24.328600 0.000019 0.000005 17.733800 -1.547940 -94.828500 22.291600 -0.000001 0.000005 0.893455 5.440610 -4.306210 12.994500 -0.242716 -4.980390 89.356200 4.013850 -80.878500 -5.348130 -0.000001 -0.000004 -45.449700 40.301700 -45.684500 -24.328900 0.000322 -0.000009 -7.978570 4.227670 -117.744000 -22.291500 -0.000108 -0.000004 22.188800 5.575360 -9.968310 -2.192480 -6.469440 -0.000000 -178.197000 -12.584500 -38.748100 39.081100 -0.000007 -0.000012 0.058128 -0.084687 34.464600 40.985400 -0.000006 -0.000013 -0.939544 -1.610290 -53.289700 11.754300 -0.000000 0.000003 -0.006387 -0.074317 -19.601700 -2.192510 6.469440 -0.000001 168.754000 10.139800 -172.174000 -39.081100 -0.002282 -0.040193 0.093116 -0.119933 36.833100 -40.985400 0.000008 0.000006 10.081800 15.102700 -64.849300 -11.754300 -0.000006 -0.000006 -0.261675 -0.738898 -48.774800
0.000000 0.000000 0.000000 0.000000 0.000000 -0.000000 1.274830 85.395200 -14.495500 90.871200 -13.175100 -1.566610 15.735700 0.000005 -0.000001 110.941000 82.331700 -112.910000 8.984550 -0.406207 -0.000000 6.678560 5.482940 -4.256010 16.377300 -0.000001 -0.000001 -2.816490 -2.108580 1.758010 6.456720 -0.000001 -0.000000 -8.072070 -4.951020 1.076930 12.994200 -0.242716 4.980390 -91.087200 2.525850 -66.699500 5.348090 -0.000007 -0.000001 -52.723400 17.545700 18.938400 24.328600 0.000019 0.000005 17.106400 -1.272990 -94.128800 22.291600 -0.000001 0.000005 3.024550 5.449130 -4.608950 12.994500 -0.242716 -4.980390 88.746600 8.397220 -81.479500 -5.348130 -0.000001 -0.000004 -52.237800 41.811500 -29.508300 -24.328900 0.000322 -0.000009 -9.007760 3.115090 -108.923000 -22.291500 -0.000108 -0.000004 21.309900 5.589880 -10.754700 -2.192480 -6.469440 -0.000000 -179.971000 -12.438900 -39.422200 39.081100 -0.000007 -0.000012 -0.053385 0.054819 44.241900 40.985400 -0.000006 -0.000013 -0.526001 -1.168680 -56.744800 11.754300 -0.000000 0.000003 -0.001586 -0.023409 -17.528600 -2.192510 6.469440 -0.000001 166.196000 9.041250 -172.362000 -39.081100 -0.002282 -0.040193 0.203151 -0.219365 42.339000 -40.985400 0.000008 0.000006 12.195600 14.619700 -54.982400 -11.754300 -0.000006 -0.000006 -0.484638 -0.983654 -62.230100
0.000000 0.000000 0.000000 0.000000 0.000000 -0.000000 2.098970 84.977100 -7.385290 91.652800 -11.939500 0.873274 15.735700 0.000005 -0.000001 108.265000 81.980100 -110.545000 8.984550 -0.406207 -0.000000 7.591720 5.010970 -4.890010 16.377300 -0.000001 -0.000001 -1.882940 -2.466310 1.792760 6.456720 -0.000001 -0.000000 -7.317870 -5.504120 2.402840 12.994200 -0.242716 4.980390 -92.623500 5.814520 -65.663900 5.348090 -0.000007 -0.000001 -52.033000 17.551900 5.317910 24.328600 0.000019 0.000005 20.907200 -0.523940 -91.372100 22.291600 -0.000001 0.000005 4.288140 5.454530 -4.801810 12.994500 -0.242716 -4.980390 88.315500 9.728600 -80.127600 -5.348130 -0.000001 -0.000004 -63.146200 39.567300 -13.110100 -24.328900 0.000322 -0.000009 -10.494000 0.079341 -90.427500 -22.291500 -0.000108 -0.000004 23.897800 5.616520 -12.362500 -2.192480 -6.469440 -0.000000 179.313000 -9.501380 -35.329900 39.081100 -0.000007 -0.000012 -0.241722 0.196954 50.827700 40.985400 -0.000006 -0.000013 -0.681177 -2.906310 -65.205400 11.754300 -0.000000 0.000003 -0.000035 -0.000418 -16.593900 -2.192510 6.469440 -0.000001 164.946000 7.574500 -174.568000 -39.081100 -0.002282 -0.040193 0.301657 -0.237123 51.529300 -40.985400 0.000008 0.000006 8.785870 11.946900 -38.377400 -11.754300 -0.000006 -0.000006 -0.289490 -0.776419 -50.668600
